<?xml version="1.0" encoding="utf-8"?>
<!-- Generator: Adobe Illustrator 18.1.1, SVG Export Plug-In . SVG Version: 6.00 Build 0)  -->
<svg version="1.1" id="Layer_2" xmlns="http://www.w3.org/2000/svg" xmlns:xlink="http://www.w3.org/1999/xlink" x="0px" y="0px"
	 viewBox="0 0 612 792" enable-background="new 0 0 612 792" xml:space="preserve">
<path fill="#FFFFFF" d="M306,396c-145.8,0-264.1,77.3-264.1,172.7S160.2,741.3,306,741.3s264.1-77.3,264.1-172.7S451.8,396,306,396z
	 M220.5,657c0,0.3,0,0.6,0,0.8c0,2.8,2.3,5.4,5.4,5.4c2.8,0,5.4-2.3,5.4-5.4c0-2.8-2.3-5.4-5.4-5.4c-0.3,0-0.6,0-0.8,0
	c1.4-0.6,2.8-1.1,4.5-1.1c5.7,0,10.2,4.5,10.2,10.2s-4.5,10.2-10.2,10.2c-5.7,0-10.2-4.5-10.2-10.2
	C219.4,659.8,219.9,658.4,220.5,657z M324.7,557.9c29.4-14.7,69.4-7.4,69.4-7.4c-20.9-1.1-75.6,26.3-75.6,26.3
	C310,704.8,203,692.4,203,692.4c100.8-16.7,98.5-101.9,98.5-101.9c-22.1,3.1-53.5,54.6-53.5,54.6c-0.8-32,57.7-81.8,57.7-81.8
	c25.2-123.7,102.8-118.6,102.8-118.6C322.4,487.7,324.7,557.9,324.7,557.9z"/>
</svg>
